<svg width="32" height="32" viewBox="0 0 32 32" fill="none" xmlns="http://www.w3.org/2000/svg">
<path  opacity="0.1" fill-rule="evenodd" clip-rule="evenodd" d="M0 16C0 7.16344 7.16344 0 16 0C24.8366 0 32 7.16344 32 16C32 24.8366 24.8366 32 16 32C7.16344 32 0 24.8366 0 16Z" fill="#80CAFF"/>
<path  d="M18.5395 10.4906H20V8.10563C19.748 8.07312 18.8814 8 17.8722 8C15.7664 8 14.3238 9.24188 14.3238 11.5244V13.625H12V16.2913H14.3238V23H17.1729V16.2919H19.4027L19.7567 13.6256H17.1722V11.7887C17.1729 11.0181 17.3942 10.4906 18.5395 10.4906Z" fill="#0096FF"/>
</svg>
