<svg xmlns="http://www.w3.org/2000/svg"><symbol viewBox="0 0 6 11.374667" id="src-1">
<path d="M4.90459 1.88872H6V0.080099C5.81102 0.0554531 5.16107 0 4.40413 0C2.82476 0 1.74286 0.941755 1.74286 2.67265V4.26562H0V6.28753H1.74286V11.375H3.87968V6.28801H5.55204L5.81752 4.2661H3.87918V2.87314C3.87968 2.28874 4.04566 1.88872 4.90459 1.88872Z" fill="white"/>
</symbol><symbol viewBox="0 0 10 9.4800005" id="src-2">
<path d="M5 3.7918V5.6877H7.829C7.416 6.79111 6.304 7.58359 5 7.58359C3.346 7.58359 2 6.30765 2 4.73975C2 3.17184 3.346 1.8959 5 1.8959C5.717 1.8959 6.407 2.13952 6.943 2.58221L8.257 1.15271C7.357 0.409514 6.201 0 5 0C2.243 0 0 2.12625 0 4.73975C0 7.35324 2.243 9.47949 5 9.47949C7.757 9.47949 10 7.35324 10 4.73975V3.7918H5Z" fill="white"/>
</symbol><symbol viewBox="0 0 10.937333 10.369333" id="src-3">
<path d="M7.91943 0H3.01842C1.35407 0 0 1.28365 0 2.86137V7.50728C0 9.08507 1.35407 10.3687 3.01842 10.3687H7.91943C9.58392 10.3687 10.938 9.08501 10.938 7.50728V2.86137C10.9381 1.28365 9.58392 0 7.91943 0ZM9.96758 7.50728C9.96758 8.5778 9.0488 9.4487 7.9195 9.4487H3.01842C1.88918 9.44876 0.970471 8.5778 0.970471 7.50728V2.86137C0.970471 1.79091 1.88918 0.919957 3.01842 0.919957H7.91943C9.04874 0.919957 9.96752 1.79091 9.96752 2.86137V7.50728H9.96758Z" fill="white"/>
<path d="M5.46881 2.5127C3.91471 2.5127 2.65039 3.7113 2.65039 5.18463C2.65039 6.6579 3.91471 7.85645 5.46881 7.85645C7.02291 7.85645 8.28723 6.6579 8.28723 5.18463C8.28723 3.7113 7.02291 2.5127 5.46881 2.5127ZM5.46881 6.93636C4.44989 6.93636 3.62085 6.15054 3.62085 5.18457C3.62085 4.21854 4.44982 3.43266 5.46881 3.43266C6.4878 3.43266 7.31677 4.21854 7.31677 5.18457C7.31677 6.15054 6.48773 6.93636 5.46881 6.93636Z" fill="white"/>
<path d="M8.40607 1.73242C8.21908 1.73242 8.03538 1.8042 7.90333 1.92996C7.77062 2.0551 7.69434 2.22932 7.69434 2.40723C7.69434 2.58458 7.77069 2.75874 7.90333 2.8845C8.03532 3.00964 8.21908 3.08203 8.40607 3.08203C8.59371 3.08203 8.77681 3.00964 8.90945 2.8845C9.0421 2.75874 9.1178 2.58452 9.1178 2.40723C9.1178 2.22932 9.0421 2.0551 8.90945 1.92996C8.77746 1.8042 8.59371 1.73242 8.40607 1.73242Z" fill="white"/>
</symbol><symbol viewBox="0 0 12 9.4800005" id="src-4">
<path d="M12 1.12228C11.5538 1.31261 11.0782 1.43877 10.5825 1.50002C11.0925 1.20396 11.4818 0.738709 11.6648 0.177932C11.1892 0.453581 10.6642 0.648285 10.1047 0.75694C9.65325 0.289504 9.00975 0 8.30775 0C6.94575 0 5.84925 1.07488 5.84925 2.3926C5.84925 2.5822 5.86575 2.76451 5.90625 2.93806C3.861 2.84108 2.05125 1.88797 0.8355 0.436079C0.62325 0.794131 0.49875 1.20396 0.49875 1.64514C0.49875 2.47355 0.9375 3.20788 1.5915 3.63302C1.19625 3.62573 0.8085 3.51416 0.48 3.33841C0.48 3.3457 0.48 3.35518 0.48 3.36466C0.48 4.52706 1.33275 5.49255 2.451 5.71497C2.25075 5.7682 2.0325 5.79373 1.806 5.79373C1.6485 5.79373 1.4895 5.78498 1.34025 5.75289C1.659 6.70016 2.5635 7.39657 3.639 7.41918C2.802 8.0558 1.73925 8.43937 0.58875 8.43937C0.387 8.43937 0.1935 8.43062 0 8.40656C1.08975 9.08984 2.38125 9.47998 3.774 9.47998C8.301 9.47998 10.776 5.83383 10.776 2.67335C10.776 2.56762 10.7723 2.46552 10.767 2.36416C11.2552 2.02726 11.6655 1.60649 12 1.12228Z" fill="white"/>
</symbol><symbol viewBox="0 0 12.625333 9.117333" id="src-5">
<path d="M8.3584 4.26102L5.39922 2.50789C5.28517 2.44033 5.14145 2.43676 5.02385 2.49854C4.90622 2.56032 4.83325 2.67775 4.83325 2.80522V6.31148C4.83325 6.43895 4.90622 6.55636 5.02385 6.61816C5.07973 6.64752 5.14148 6.66211 5.20315 6.66211C5.27128 6.66211 5.33932 6.64427 5.3992 6.60881L8.35838 4.85568C8.46653 4.79161 8.53223 4.67925 8.53223 4.55835C8.53223 4.43745 8.46656 4.32509 8.3584 4.26102ZM5.57307 5.67886V3.43782L7.46443 4.55835L5.57307 5.67886Z" fill="white"/>
<path d="M10.7762 0H1.84945C0.829665 0 0 0.786491 0 1.75321V7.36349C0 8.33021 0.829665 9.1167 1.84945 9.1167H10.7762C11.7959 9.1167 12.6256 8.33021 12.6256 7.36349V1.75321C12.6256 0.786491 11.7959 0 10.7762 0ZM11.8858 7.36349C11.8858 7.94352 11.388 8.41541 10.7762 8.41541H1.84945C1.23758 8.41541 0.739782 7.94352 0.739782 7.36349V1.75321C0.739782 1.17318 1.23758 0.701285 1.84945 0.701285H10.7762C11.388 0.701285 11.8858 1.17318 11.8858 1.75321V7.36349Z" fill="white"/>
</symbol></svg>